<svg version="1.1" xmlns="http://www.w3.org/2000/svg" viewBox="0 0 1043 1150.25" width="1043" height="1150.25">
  <!-- svg-source:excalidraw -->

  <defs>
    <style>
      @font-face {
        font-family: "Virgil";
        src: url("https://excalidraw.com/Virgil.woff2");
      }
      @font-face {
        font-family: "Cascadia";
        src: url("https://excalidraw.com/Cascadia.woff2");
      }
    </style>
  </defs>
  <rect x="0" y="0" width="1043" height="1150.25" fill="#ffffff"></rect><g stroke-linecap="round" transform="translate(898 10) rotate(0 59 48)"><path d="M1.9 0.4 C28.56 -1.52, 56.32 1.07, 116.97 0.04 M0.2 -0.67 C32.36 -0.48, 65.24 -0.37, 118.34 -0.79 M116.62 -1.18 C118.16 29.81, 117.23 63.53, 117.4 94.12 M118.18 -0.41 C119.51 21.94, 119.31 44.5, 117.2 96.86 M118.84 96.18 C82.99 95.11, 50.19 96, 1.91 96.29 M117.68 95.64 C91.75 95.08, 67.2 95.88, 0.33 96.72 M-1.49 94.99 C-1.19 69.85, 1.04 41.73, -1.63 -1.28 M-0.42 96.85 C0.37 58.13, 0.1 21.62, 0.18 -0.94" stroke="#000000" stroke-width="1" fill="none"></path></g><g stroke-linecap="round" transform="translate(779.5 48) rotate(0 10.5 10)"><path d="M9.6 0.09 C11.66 -0.29, 15.37 0.18, 17.34 1.43 C19.3 2.68, 20.87 5.46, 21.38 7.57 C21.88 9.68, 21.66 12.14, 20.37 14.07 C19.08 16, 15.85 18.07, 13.64 19.15 C11.42 20.23, 9.17 21.24, 7.09 20.55 C5.01 19.86, 2.46 16.82, 1.16 15.01 C-0.13 13.19, -1.14 11.9, -0.68 9.69 C-0.21 7.47, 1.9 3.31, 3.94 1.73 C5.97 0.16, 10.01 0.59, 11.51 0.23 C13.02 -0.12, 13.14 -0.64, 12.98 -0.4 M6.44 1.97 C8.3 1.25, 11.06 -0.1, 13.17 0.24 C15.28 0.59, 17.98 1.92, 19.1 4.04 C20.22 6.15, 20.01 10.68, 19.88 12.94 C19.74 15.19, 19.91 16.51, 18.27 17.55 C16.64 18.59, 12.55 19.15, 10.07 19.17 C7.58 19.18, 5.09 18.83, 3.37 17.65 C1.64 16.47, 0.15 14.21, -0.28 12.09 C-0.72 9.97, -0.63 6.81, 0.76 4.94 C2.14 3.06, 7.11 1.5, 8.03 0.83 C8.96 0.16, 6.54 0.92, 6.3 0.9" stroke="#000000" stroke-width="1" fill="none"></path></g><g stroke-linecap="round" transform="translate(819 48) rotate(0 10.5 10)"><path d="M5.68 0.74 C7.5 -0.22, 11.86 0.02, 14.01 0.56 C16.16 1.1, 17.32 2.27, 18.57 3.98 C19.81 5.68, 21.7 8.63, 21.48 10.78 C21.26 12.94, 19.09 15.21, 17.25 16.9 C15.41 18.59, 12.75 20.81, 10.43 20.92 C8.1 21.03, 5.07 19.18, 3.31 17.58 C1.55 15.98, 0.3 13.25, -0.14 11.32 C-0.59 9.39, -0.74 7.82, 0.63 5.99 C2.01 4.16, 6.9 1.36, 8.13 0.34 C9.35 -0.68, 8.1 -0.29, 8 -0.11 M9 1.16 C11.07 0.73, 14.35 -0.07, 16.29 0.76 C18.22 1.59, 20.08 3.74, 20.61 6.15 C21.14 8.55, 20.44 13.26, 19.46 15.17 C18.48 17.09, 16.83 16.85, 14.73 17.64 C12.63 18.42, 9.09 20.06, 6.87 19.87 C4.64 19.67, 2.78 18, 1.4 16.47 C0.02 14.93, -1.63 13.05, -1.42 10.64 C-1.21 8.23, 0.83 3.89, 2.64 1.99 C4.46 0.09, 8.61 -0.47, 9.48 -0.77 C10.35 -1.07, 7.67 -0.34, 7.87 0.19" stroke="#000000" stroke-width="1" fill="none"></path></g><g stroke-linecap="round" transform="translate(858.5 48) rotate(0 10.5 10)"><path d="M13.82 0.5 C15.91 0.84, 17.17 2.13, 18.46 3.81 C19.74 5.5, 21.69 8.43, 21.51 10.59 C21.33 12.75, 19.21 15.05, 17.4 16.77 C15.59 18.49, 12.95 20.76, 10.63 20.91 C8.31 21.07, 5.26 19.26, 3.47 17.69 C1.68 16.13, 0.39 13.43, -0.1 11.51 C-0.59 9.59, -0.67 7.97, 0.54 6.16 C1.75 4.35, 4.78 1.62, 7.17 0.67 C9.57 -0.27, 13.42 0.26, 14.94 0.49 C16.45 0.72, 16.35 1.76, 16.26 2.04 M8.36 -0.48 C10.44 -1.37, 13.55 -0.99, 15.38 0.35 C17.21 1.68, 18.62 5.63, 19.36 7.53 C20.1 9.42, 20.59 9.9, 19.82 11.72 C19.05 13.54, 16.66 17.03, 14.76 18.45 C12.85 19.87, 10.62 20.32, 8.4 20.21 C6.18 20.1, 2.82 19.63, 1.42 17.79 C0.01 15.96, -0.21 11.65, -0.01 9.21 C0.18 6.76, 1.42 4.64, 2.58 3.13 C3.74 1.63, 5.76 0.38, 6.94 0.16 C8.12 -0.07, 9.37 1.39, 9.65 1.8" stroke="#000000" stroke-width="1" fill="none"></path></g><g stroke-linecap="round" transform="translate(169 10) rotate(0 59 48)"><path d="M1.24 1.54 C39.8 -3.08, 79.94 -1.5, 117.34 -0.71 M-0.24 -0.79 C25.17 -0.39, 50.41 -0.23, 118.88 -0.52 M116.35 0.47 C118.93 18.78, 117.42 41.9, 117.01 95.1 M118.59 0.23 C118.81 36.91, 118.57 72.38, 117.43 96.8 M118.13 95.81 C82.82 94.97, 49.58 97.23, -1.24 95.1 M118.18 95.75 C77.67 96.08, 36.39 95.31, 0.02 95.08 M-0.54 95.51 C-2.06 75.52, -1.82 54.56, -0.3 1.9 M-0.65 96.45 C-0.39 65.31, -0.09 34.65, 0.57 0.2" stroke="#000000" stroke-width="1" fill="none"></path></g><g stroke-linecap="round" transform="translate(287.5 10) rotate(0 59 48)"><path d="M1.17 0.46 C45.02 1.41, 89.58 -0.91, 116.86 1.59 M0.07 -0.1 C32.58 -1.34, 66.14 -0.21, 117.38 -0.45 M118.37 -0.51 C118.37 34.94, 117.03 66.44, 118.04 94.16 M117.73 -0.24 C118.02 20.02, 118.14 39.8, 117.85 96.95 M116.69 96.89 C79.22 95.03, 42.08 95.15, 1.13 96.41 M117.4 96.3 C90.9 95.44, 63.39 95.56, -0.97 95.31 M-0.13 96.77 C-0.98 70.99, -1.7 51.14, 1.55 0.35 M0.63 95.53 C-1.61 71.99, -0.86 46.06, -0.84 0.42" stroke="#000000" stroke-width="1" fill="none"></path></g><g stroke-linecap="round" transform="translate(406 10) rotate(0 59 48)"><path d="M-0.49 -1.36 C43.68 -0.8, 86.89 0.01, 119.9 0.4 M0.45 -0.52 C33.89 0.56, 67.82 1.34, 118.2 -0.67 M118.59 0.68 C116.61 23.98, 116.86 44.96, 116.62 94.82 M118.38 -0.3 C116.31 31.96, 117.95 66.01, 118.18 95.59 M117.06 94.39 C74.48 96.63, 27.11 95.06, 0.84 96.18 M118.5 96.95 C84.3 96.14, 49.36 96.09, -0.32 95.64 M1.88 96.67 C1.3 75.71, 1.75 56.67, -1.49 -1.01 M-0.85 95.18 C-0.7 69.44, -0.38 41.79, -0.42 0.85" stroke="#000000" stroke-width="1" fill="none"></path></g><g stroke-linecap="round" transform="translate(524.5 10) rotate(0 59 48)"><path d="M-0.31 -1.12 C31.14 0.5, 66.37 1.2, 117.74 -1.7 M0.02 -0.21 C27.76 1.18, 55.57 -0.07, 117.44 0.19 M116.43 0.54 C116.97 21.12, 116.9 44.94, 118.79 94.43 M117.06 -0.66 C119.07 28.93, 118.54 55.9, 118.83 95.46 M119.73 95.89 C74.78 93.37, 33.16 95.23, -0.26 96.1 M118.14 95.15 C71.71 96.22, 27.01 96.77, -0.94 96.14 M1.44 95.48 C0.99 69.06, -2.4 40.69, -0.28 0.13 M-0.64 96.9 C0.51 58.59, 0.4 20.6, 0.06 -0.46" stroke="#000000" stroke-width="1" fill="none"></path></g><g stroke-linecap="round" transform="translate(643 10) rotate(0 59 48)"><path d="M-1.09 -0.3 C29.29 1.06, 54.53 -1.04, 116.69 0.89 M0.08 0.57 C29.52 -0.43, 58.07 0.44, 117.4 0.3 M116.68 -1.94 C115.86 30.9, 118.04 62.6, 117.87 96.77 M118.7 0.78 C117.27 25.5, 117.93 51.28, 118.63 95.53 M117.62 94.32 C92.92 96.12, 65.9 96.03, 1.68 97 M117.04 95.1 C71.03 94.63, 23.78 95.14, -0.17 96.94 M1.89 96.21 C-2.18 62.99, -0.97 32.12, 1.94 -1.71 M-0.31 96.71 C0.2 75.88, 0.68 53.6, -0.21 0.45" stroke="#000000" stroke-width="1" fill="none"></path></g><g transform="translate(174 45.5) rotate(0 54 12.5)"><text x="54" y="18" font-family="Virgil, Segoe UI Emoji" font-size="20px" fill="#000000" text-anchor="middle" style="white-space: pre;" direction="ltr">0</text></g><g transform="translate(292.5 45.5) rotate(0 54 12.5)"><text x="54" y="18" font-family="Virgil, Segoe UI Emoji" font-size="20px" fill="#000000" text-anchor="middle" style="white-space: pre;" direction="ltr">1</text></g><g transform="translate(411 45.5) rotate(0 54 12.5)"><text x="54" y="18" font-family="Virgil, Segoe UI Emoji" font-size="20px" fill="#000000" text-anchor="middle" style="white-space: pre;" direction="ltr">2</text></g><g transform="translate(529.5 45.5) rotate(0 54 12.5)"><text x="54" y="18" font-family="Virgil, Segoe UI Emoji" font-size="20px" fill="#000000" text-anchor="middle" style="white-space: pre;" direction="ltr">3</text></g><g transform="translate(648 45.5) rotate(0 54 12.5)"><text x="54" y="18" font-family="Virgil, Segoe UI Emoji" font-size="20px" fill="#000000" text-anchor="middle" style="white-space: pre;" direction="ltr">4</text></g><g transform="translate(903 45.5) rotate(0 54 12.5)"><text x="54" y="18" font-family="Virgil, Segoe UI Emoji" font-size="20px" fill="#000000" text-anchor="middle" style="white-space: pre;" direction="ltr">15</text></g><g transform="translate(10 33) rotate(0 68 25)"><text x="0" y="18" font-family="Virgil, Segoe UI Emoji" font-size="20px" fill="#000000" text-anchor="start" style="white-space: pre;" direction="ltr">input iterator</text><text x="0" y="43" font-family="Virgil, Segoe UI Emoji" font-size="20px" fill="#000000" text-anchor="start" style="white-space: pre;" direction="ltr">it:</text></g><g transform="translate(10 231.04999999999995) rotate(0 511.5 12.5)"><text x="0" y="18" font-family="Virgil, Segoe UI Emoji" font-size="20px" fill="#000000" text-anchor="start" style="white-space: pre;" direction="ltr">initial = 5 (first collect 5 values from the iterator to fill the initial buffer WITHOUT yielding from it)</text></g><g transform="translate(10 156.02499999999998) rotate(0 152.5 12.5)"><text x="0" y="18" font-family="Virgil, Segoe UI Emoji" font-size="20px" fill="#000000" text-anchor="start" style="white-space: pre;" direction="ltr">buffer is empty in the beginning</text></g><g stroke-linecap="round" transform="translate(127 306.07499999999993) rotate(0 59 48)"><path d="M-1.56 -1.59 C26.33 -1.11, 57.01 1.63, 117.79 -0.23 M-0.47 -0.23 C34.75 -0.05, 66.87 -0.06, 118.44 -0.54 M119.33 -0.63 C119.22 29.8, 118.18 58.02, 119.96 94.91 M117.48 -0.86 C118.84 36.63, 117.63 74.12, 117.12 95.59 M119.72 95.5 C74.5 95.15, 31.77 95.5, -1.98 94.98 M117.49 95.3 C81.11 95.85, 44.25 95.49, 0.62 95.21 M0.04 97.75 C0.48 71.1, 0.5 42.94, 1.7 -0.76 M0.85 96.22 C0.29 60.09, -1.27 24.94, -0.91 0.88" stroke="#000000" stroke-width="1" fill="none"></path></g><g stroke-linecap="round" transform="translate(245.5 306.07499999999993) rotate(0 59 48)"><path d="M-1.59 -2 C32.58 1.28, 69.27 0.71, 117.77 -0.27 M-0.23 0.94 C29.82 -0.19, 59.93 0.99, 117.46 0.01 M117.37 0.52 C118.09 35.25, 117.46 73.5, 116.91 97.8 M117.14 0.63 C117.09 30.26, 117.15 60.81, 117.59 96.59 M117.5 94.83 C71.88 95.44, 26.21 95.04, -1.02 96.2 M117.3 95.71 C78.06 94.84, 37.54 96.01, -0.79 95.77 M1.75 95.68 C1.55 74.95, 0.01 56.21, -0.76 1.31 M0.22 96.97 C-1.25 59.86, -1.31 23.99, 0.88 -0.42" stroke="#000000" stroke-width="1" fill="none"></path></g><g stroke-linecap="round" transform="translate(364 306.07499999999993) rotate(0 59 48)"><path d="M-2 -1.37 C33.22 2.32, 65.52 0.71, 117.73 -0.89 M0.94 -0.3 C32.18 -0.04, 66.29 -0.27, 118.01 0.73 M118.52 0.94 C118.12 20.62, 120.6 39.55, 119.8 96.43 M118.63 -0.79 C116.93 26.84, 116.63 54.72, 118.59 96.9 M116.83 95.91 C88.62 95.96, 60.42 94.68, 0.2 96.81 M117.71 96.22 C85.76 95.04, 55.26 94.38, -0.23 95.16 M-0.32 97.72 C-0.33 65.74, 1.68 34.38, 1.31 1.41 M0.97 95.18 C-1.41 62.01, -1.73 30.66, -0.42 -0.29" stroke="#000000" stroke-width="1" fill="none"></path></g><g stroke-linecap="round" transform="translate(482.5 306.07499999999993) rotate(0 59 48)"><path d="M-1.37 0.36 C27.58 0.97, 52.16 0.91, 117.11 -0.42 M-0.3 -0.74 C29.57 -0.66, 59.2 -1.1, 118.73 -0.88 M118.94 -0.52 C118 37.13, 116.61 72.14, 118.43 95.74 M117.21 -0.58 C116.45 22.97, 116.76 48.28, 118.9 95.36 M117.91 94.42 C72.69 93.33, 25.85 95.51, 0.81 95.37 M118.22 95.44 C88.48 96.27, 58.43 95.43, -0.84 96.17 M1.72 95.69 C-0.67 68.71, -1.6 39.32, 1.41 0.9 M-0.82 95.41 C-1.09 58.08, 0.66 21.57, -0.29 0.21" stroke="#000000" stroke-width="1" fill="none"></path></g><g stroke-linecap="round" transform="translate(601 306.07499999999993) rotate(0 59 48)"><path d="M0.36 1.38 C25.79 0.58, 51.72 -0.09, 117.58 -0.94 M-0.74 -0.31 C33.13 -0.19, 65.38 1.08, 117.12 0.66 M117.48 0.3 C120.21 24.69, 120.04 52, 117.74 94.97 M117.42 -0.72 C117.73 20.14, 119.19 42.01, 117.36 96.86 M116.42 96.26 C83.6 94.92, 53.36 96.75, -0.63 94.98 M117.44 95.87 C91.48 95.47, 63.51 95.42, 0.17 96.02 M-0.31 96.17 C1.86 58.04, 1.47 23.01, 0.9 1.71 M-0.59 95.12 C-1.84 65.93, -1.35 33.81, 0.21 -0.3" stroke="#000000" stroke-width="1" fill="none"></path></g><g transform="translate(132 341.57499999999993) rotate(0 54 12.5)"><text x="54" y="18" font-family="Virgil, Segoe UI Emoji" font-size="20px" fill="#000000" text-anchor="middle" style="white-space: pre;" direction="ltr">0</text></g><g transform="translate(250.5 341.57499999999993) rotate(0 54 12.5)"><text x="54" y="18" font-family="Virgil, Segoe UI Emoji" font-size="20px" fill="#000000" text-anchor="middle" style="white-space: pre;" direction="ltr">1</text></g><g transform="translate(369 341.57499999999993) rotate(0 54 12.5)"><text x="54" y="18" font-family="Virgil, Segoe UI Emoji" font-size="20px" fill="#000000" text-anchor="middle" style="white-space: pre;" direction="ltr">2</text></g><g transform="translate(487.5 341.57499999999993) rotate(0 54 12.5)"><text x="54" y="18" font-family="Virgil, Segoe UI Emoji" font-size="20px" fill="#000000" text-anchor="middle" style="white-space: pre;" direction="ltr">3</text></g><g transform="translate(606 341.57499999999993) rotate(0 54 12.5)"><text x="54" y="18" font-family="Virgil, Segoe UI Emoji" font-size="20px" fill="#000000" text-anchor="middle" style="white-space: pre;" direction="ltr">4</text></g><g transform="translate(10 329.07499999999993) rotate(0 30.5 25)"><text x="0" y="18" font-family="Virgil, Segoe UI Emoji" font-size="20px" fill="#000000" text-anchor="start" style="white-space: pre;" direction="ltr">buffer</text><text x="0" y="43" font-family="Virgil, Segoe UI Emoji" font-size="20px" fill="#000000" text-anchor="start" style="white-space: pre;" direction="ltr">buf:</text></g><g transform="translate(10 452.0999999999999) rotate(0 337 12.5)"><text x="0" y="18" font-family="Virgil, Segoe UI Emoji" font-size="20px" fill="#000000" text-anchor="start" style="white-space: pre;" direction="ltr">Now return 1 random value from buf (yield and remove from list/buf)</text></g><g stroke-linecap="round" transform="translate(127 527.1249999999999) rotate(0 59 48)"><path d="M-1.81 0.43 C31.15 -1.11, 61.24 0.58, 117.29 -1.34 M0.62 -0.24 C41.21 -1.67, 80.32 -1.97, 118.33 -0.9 M116.88 -0.32 C117.63 32.93, 118.33 67.51, 117.94 97.33 M118.25 -0.68 C118.38 38.46, 118.51 77.16, 117.29 95.52 M116.33 94.21 C74.82 93.76, 32.72 94.09, 1.1 97.62 M117.63 96.44 C92.27 96.33, 66.25 95.29, 0.77 96.52 M1.16 95.64 C-1.29 62.33, -0.19 29.89, -0.02 -0.52 M0.1 96.05 C0.97 74.9, 0.19 51.01, 0.02 0.41" stroke="#000000" stroke-width="1" fill="none"></path></g><g stroke-linecap="round" transform="translate(245.5 527.1249999999999) rotate(0 59 48)"><path d="M0.43 0.19 C36.42 0.39, 75.81 0.35, 116.66 0.82 M-0.24 0.99 C27.95 -0.86, 56.19 -0.4, 117.1 0.53 M117.68 -0.11 C117.17 26.8, 117.84 52.38, 119.33 97.98 M117.32 0.03 C119.1 32.41, 119.48 63.78, 117.52 96.62 M116.21 95.53 C77.68 95.17, 39.17 96.12, 1.62 94.4 M118.44 96.21 C75.49 95.7, 31.24 96.33, 0.52 96.53 M-0.36 94.37 C0.87 70.07, 2.31 45.17, -0.52 -1.4 M0.05 96.12 C1.27 75.01, -0.52 55.36, 0.41 0.94" stroke="#000000" stroke-width="1" fill="none"></path></g><g stroke-linecap="round" transform="translate(365.5 527.1249999999999) rotate(0 59 48)"><path d="M-1.28 -0.68 C25.11 -0.83, 48.09 0.7, 116.84 1.81 M-0.6 -0.13 C41.82 -0.84, 84.56 -0.63, 117.73 0.17 M117.01 0.59 C117.53 23.38, 119.18 48.86, 118.72 97.98 M118.15 0.17 C117.87 30.49, 116.87 63.03, 118.29 95.36 M116.52 96.15 C91.27 96.82, 68.48 94.12, 1.32 95.38 M118.7 96.13 C86.59 97.02, 56.41 96.78, -0.35 95.3 M0.2 95.47 C1.81 61.61, -0.35 25.87, -1.77 -0.56 M1 95.34 C-0.84 66.3, 0.36 37.5, -0.55 0.8" stroke="#000000" stroke-width="1" fill="none"></path></g><g stroke-linecap="round" transform="translate(484 527.1249999999999) rotate(0 59 48)"><path d="M-0.68 0.4 C37.19 -0.58, 76.63 -0.4, 119.81 1.24 M-0.13 -0.9 C32.95 -0.19, 65.77 0.44, 118.17 -0.56 M118.59 -0.32 C117.89 28.62, 119.93 55.29, 119.98 96.5 M118.17 0.52 C117.32 21.82, 118.65 44.88, 117.36 95.17 M118.15 94.84 C94.25 96.75, 66.69 96.45, -0.62 95.26 M118.13 95.65 C78.2 97.34, 37.39 96.47, -0.7 96.58 M-0.53 97.64 C0.76 68.39, -0.61 40.06, -0.56 0.19 M-0.66 95.21 C-0.1 67.09, 0.82 36.82, 0.8 -0.53" stroke="#000000" stroke-width="1" fill="none"></path></g><g transform="translate(132 562.6249999999999) rotate(0 54 12.5)"><text x="54" y="18" font-family="Virgil, Segoe UI Emoji" font-size="20px" fill="#000000" text-anchor="middle" style="white-space: pre;" direction="ltr">0</text></g><g transform="translate(250.5 562.6249999999999) rotate(0 54 12.5)"><text x="54" y="18" font-family="Virgil, Segoe UI Emoji" font-size="20px" fill="#000000" text-anchor="middle" style="white-space: pre;" direction="ltr">1</text></g><g transform="translate(370.5 562.6249999999999) rotate(0 54 12.5)"><text x="54" y="18" font-family="Virgil, Segoe UI Emoji" font-size="20px" fill="#000000" text-anchor="middle" style="white-space: pre;" direction="ltr">3</text></g><g transform="translate(489 562.6249999999999) rotate(0 54 12.5)"><text x="54" y="18" font-family="Virgil, Segoe UI Emoji" font-size="20px" fill="#000000" text-anchor="middle" style="white-space: pre;" direction="ltr">4</text></g><g transform="translate(10 562.6249999999999) rotate(0 18.5 12.5)"><text x="0" y="18" font-family="Virgil, Segoe UI Emoji" font-size="20px" fill="#000000" text-anchor="start" style="white-space: pre;" direction="ltr">buf:</text></g><g transform="translate(10 673.1499999999999) rotate(0 260.5 12.5)"><text x="0" y="18" font-family="Virgil, Segoe UI Emoji" font-size="20px" fill="#000000" text-anchor="start" style="white-space: pre;" direction="ltr">Get next value from iterator and append to buffer:</text></g><g stroke-linecap="round" transform="translate(111.5 748.1749999999998) rotate(0 59 48)"><path d="M1.38 -0.37 C31.02 1.77, 60.35 -1.17, 118.82 0.25 M-0.81 -0.15 C38.27 0.08, 77.3 -0.16, 118.92 -0.36 M118.88 1.84 C117.88 21.08, 118.33 43.66, 119.68 97.82 M117.25 0.99 C117.23 31.26, 116.61 64.03, 118.64 95.27 M117.22 95.15 C80.19 96.53, 44.3 95.64, 1.15 97.04 M118.75 95.36 C84.56 95.96, 52.99 97.78, -0.49 96.34 M1.38 96.31 C-0.21 71.33, -0.54 48.16, 0.51 -1.73 M0.68 96.77 C1.49 66.73, -0.31 35.53, -0.91 -0.12" stroke="#000000" stroke-width="1" fill="none"></path></g><g stroke-linecap="round" transform="translate(230 748.1749999999998) rotate(0 59 48)"><path d="M-0.37 0.45 C30.7 -1.6, 56.65 0.01, 118.25 0.56 M-0.15 -0.43 C31.74 0.86, 63.1 1.87, 117.64 -0.65 M119.84 0.34 C115.93 24.93, 115.98 49.94, 119.82 96.66 M118.99 -0.27 C118.18 22.91, 118.99 48.24, 117.27 96.08 M117.15 94.59 C90.94 94.63, 62.55 96.69, 1.04 95.51 M117.36 95.05 C73.86 96.87, 32.39 96.4, 0.34 95.57 M0.31 95.37 C0.5 70.41, 1.96 47.26, -1.73 0.26 M0.77 96.98 C1.1 71.52, -0.06 47.78, -0.12 0.99" stroke="#000000" stroke-width="1" fill="none"></path></g><g stroke-linecap="round" transform="translate(350 748.1749999999998) rotate(0 59 48)"><path d="M0.45 1.81 C34.98 -0.91, 72.34 0.47, 118.56 -0.64 M-0.43 0.15 C35.92 0.09, 72.96 -0.18, 117.35 -0.49 M118.34 -1.45 C119.22 21.16, 120.1 46.94, 118.66 94.96 M117.73 -0.7 C116.39 37.79, 117.92 74.64, 118.08 95.33 M116.59 96.43 C80.75 95.04, 46.47 96.53, -0.49 97.34 M117.05 95.14 C74.36 96.2, 30.26 95.59, -0.43 95.57 M-0.63 95.95 C-1.62 74.11, -0.15 47.67, 0.26 -1.07 M0.98 96.78 C-1.48 70, -1.56 44.63, 0.99 -0.13" stroke="#000000" stroke-width="1" fill="none"></path></g><g stroke-linecap="round" transform="translate(468.5 748.1749999999998) rotate(0 59 48)"><path d="M1.81 -0.78 C42.44 0.56, 87.38 0.29, 117.36 0.11 M0.15 -0.1 C25.77 1.43, 51.37 -0.14, 117.51 -0.65 M116.55 0.8 C117.48 34.7, 120.7 66.7, 116.96 97.85 M117.3 -0.89 C119.06 22.26, 118.22 43.31, 117.33 96.08 M118.43 95.09 C86.75 96.32, 57.45 94.68, 1.34 97.39 M117.14 95.98 C74.65 94.4, 29.74 94.45, -0.43 95.43 M-0.05 95.04 C1.26 61.1, -1.88 25.44, -1.07 -0.66 M0.78 95.18 C-1.11 59.77, -0.85 26.34, -0.13 -0.05" stroke="#000000" stroke-width="1" fill="none"></path></g><g transform="translate(116.5 783.6749999999998) rotate(0 54 12.5)"><text x="54" y="18" font-family="Virgil, Segoe UI Emoji" font-size="20px" fill="#000000" text-anchor="middle" style="white-space: pre;" direction="ltr">0</text></g><g transform="translate(235 783.6749999999998) rotate(0 54 12.5)"><text x="54" y="18" font-family="Virgil, Segoe UI Emoji" font-size="20px" fill="#000000" text-anchor="middle" style="white-space: pre;" direction="ltr">1</text></g><g transform="translate(355 783.6749999999998) rotate(0 54 12.5)"><text x="54" y="18" font-family="Virgil, Segoe UI Emoji" font-size="20px" fill="#000000" text-anchor="middle" style="white-space: pre;" direction="ltr">3</text></g><g transform="translate(473.5 783.6749999999998) rotate(0 54 12.5)"><text x="54" y="18" font-family="Virgil, Segoe UI Emoji" font-size="20px" fill="#000000" text-anchor="middle" style="white-space: pre;" direction="ltr">4</text></g><g stroke-linecap="round" transform="translate(587 748.1749999999998) rotate(0 59 48)"><path d="M-1.19 0.68 C32.33 -0.6, 63.59 -1.87, 117.24 -1.28 M0.05 0.02 C31.56 -0.09, 61.57 0.72, 117 0.52 M119.65 0.49 C116.7 23.95, 119.62 49.25, 119.94 97.98 M117.49 -0.02 C116.77 23.87, 117 46.57, 117.66 95.99 M117.21 95 C88.9 96.68, 54.81 96.34, 1.16 96.94 M117.05 95.63 C81.53 95.68, 43.14 96.9, -0.12 95.39 M1.23 96.67 C0.81 61.92, 0.97 31.44, -0.06 -1.3 M0.08 96.16 C-1.38 68.02, -1.39 41.56, -0.91 -0.38" stroke="#000000" stroke-width="1" fill="none"></path></g><g transform="translate(592 783.6749999999998) rotate(0 54 12.5)"><text x="54" y="18" font-family="Virgil, Segoe UI Emoji" font-size="20px" fill="#000000" text-anchor="middle" style="white-space: pre;" direction="ltr">5</text></g><g transform="translate(10 783.6749999999998) rotate(0 18.5 12.5)"><text x="0" y="18" font-family="Virgil, Segoe UI Emoji" font-size="20px" fill="#000000" text-anchor="start" style="white-space: pre;" direction="ltr">buf:</text></g><g transform="translate(10 894.1999999999998) rotate(0 316.5 12.5)"><text x="0" y="18" font-family="Virgil, Segoe UI Emoji" font-size="20px" fill="#000000" text-anchor="start" style="white-space: pre;" direction="ltr">Return 1 random value from buf (yield and remove from list/buf)</text></g><g stroke-linecap="round" transform="translate(111.5 969.2249999999999) rotate(0 59 48)"><path d="M0.32 -0.15 C26.86 -0.95, 52.73 2.46, 116.26 0.1 M0.04 0.82 C33.18 0.52, 64.83 0.48, 118.78 0.53 M117.82 1.91 C119.86 28.42, 119.83 55.58, 117.46 95.78 M117.29 -0.75 C116.93 21.73, 117.8 43.13, 117.6 96.98 M118.65 97.95 C75.31 98.61, 30.22 95.21, 1.85 94.59 M117.28 96.24 C82.67 96.13, 49.19 96, 0.99 95.19 M1.03 97.01 C2.12 71.8, 2.32 48.94, -0.27 -0.87 M0.72 95.42 C1.15 64.1, 1.59 32.58, -0.86 0.74" stroke="#000000" stroke-width="1" fill="none"></path></g><g stroke-linecap="round" transform="translate(229.66666666666663 969.2249999999999) rotate(0 59 48)"><path d="M-0.36 -1.47 C28.5 2.03, 58.67 0.18, 117.47 -1.55 M0.93 -0.34 C27.1 -1.35, 54.31 -0.44, 117.97 0.62 M119.26 -0.13 C119.14 36.03, 117.37 74.91, 116.51 95.4 M117.22 0.07 C117.4 31.61, 116.92 64.59, 118.69 96.94 M118.89 97.89 C74.85 95.65, 34.8 95.74, -0.13 94.57 M117.3 95.2 C73.84 95.36, 29.75 95.47, -0.62 95.2 M1.35 94.62 C1.06 61.35, -0.76 28.69, 0.71 -1.81 M0.28 96.3 C0.03 64.12, -1.55 31.05, 0.95 -0.25" stroke="#000000" stroke-width="1" fill="none"></path></g><g stroke-linecap="round" transform="translate(347.83333333333326 969.2249999999999) rotate(0 59 48)"><path d="M-1.47 -1.71 C39.21 -1.53, 74.63 -0.32, 116.45 -1.46 M-0.34 0.34 C35.51 -0.32, 72.31 -1.12, 118.62 0.91 M117.87 1.23 C117.38 27.41, 118.7 54.42, 117.4 96.63 M118.07 0.09 C117.09 21.56, 118.26 44.61, 118.94 96.6 M119.89 95.38 C77.23 98.38, 38.07 96.4, -1.43 97.56 M117.2 96.46 C90.21 96.17, 63.46 94.56, -0.8 96.46 M-1.38 97.55 C-1.92 61.99, -1.36 29.23, -1.81 0.84 M0.3 96.72 C1.52 59.42, 1.3 25.51, -0.25 0.92" stroke="#000000" stroke-width="1" fill="none"></path></g><g transform="translate(116.5 1004.7249999999999) rotate(0 54 12.5)"><text x="54" y="18" font-family="Virgil, Segoe UI Emoji" font-size="20px" fill="#000000" text-anchor="middle" style="white-space: pre;" direction="ltr">0</text></g><g transform="translate(234.66666666666663 1004.7249999999999) rotate(0 54 12.5)"><text x="54" y="18" font-family="Virgil, Segoe UI Emoji" font-size="20px" fill="#000000" text-anchor="middle" style="white-space: pre;" direction="ltr">3</text></g><g transform="translate(352.83333333333326 1004.7249999999999) rotate(0 54 12.5)"><text x="54" y="18" font-family="Virgil, Segoe UI Emoji" font-size="20px" fill="#000000" text-anchor="middle" style="white-space: pre;" direction="ltr">4</text></g><g stroke-linecap="round" transform="translate(465.9999999999999 969.2249999999999) rotate(0 59 48)"><path d="M-0.53 -1.55 C45.4 0.02, 95.37 1.81, 117.32 0.67 M-0.03 0.62 C31.84 -0.72, 62.8 0, 117.93 0.61 M116.51 -0.6 C118.36 19.98, 116.24 41.25, 118.14 96.17 M118.69 0.94 C118.22 27.31, 118.59 54.42, 118.95 95.69 M117.87 94.57 C93.02 93.72, 65.41 93.78, -1.59 96.92 M117.38 95.2 C93.98 95.55, 69.55 95.71, -0.69 96.78 M0.71 94.19 C0.97 75.53, -1.02 52.73, 0.6 1.44 M0.95 95.75 C1.74 57.23, 0.09 19.2, 0.81 0.82" stroke="#000000" stroke-width="1" fill="none"></path></g><g transform="translate(470.9999999999999 1004.7249999999999) rotate(0 54 12.5)"><text x="54" y="18" font-family="Virgil, Segoe UI Emoji" font-size="20px" fill="#000000" text-anchor="middle" style="white-space: pre;" direction="ltr">5</text></g><g transform="translate(10 1004.7249999999999) rotate(0 18.5 12.5)"><text x="0" y="18" font-family="Virgil, Segoe UI Emoji" font-size="20px" fill="#000000" text-anchor="start" style="white-space: pre;" direction="ltr">buf:</text></g><g transform="translate(10 1115.25) rotate(0 215.5 12.5)"><text x="0" y="18" font-family="Virgil, Segoe UI Emoji" font-size="20px" fill="#000000" text-anchor="start" style="white-space: pre;" direction="ltr">Repeat process until iterator is exhausted</text></g></svg>
